<svg width="128" height="128" viewBox="0 0 128 128" fill="none" xmlns="http://www.w3.org/2000/svg">
<path d="M64 84C75.0457 84 84 75.0457 84 64C84 52.9543 75.0457 44 64 44C52.9543 44 44 52.9543 44 64C44 75.0457 52.9543 84 64 84Z" fill="#EF9F27"/>
<path d="M61 19C61 18.2044 61.3161 17.4413 61.8787 16.8787C62.4413 16.3161 63.2044 16 64 16C64.7956 16 65.5587 16.3161 66.1213 16.8787C66.6839 17.4413 67 18.2044 67 19V33C67 33.7956 66.6839 34.5587 66.1213 35.1213C65.5587 35.6839 64.7956 36 64 36C63.2044 36 62.4413 35.6839 61.8787 35.1213C61.3161 34.5587 61 33.7956 61 33V19ZM93.699 30.059C93.9745 29.7677 94.3057 29.5346 94.6729 29.3734C95.0401 29.2123 95.4358 29.1264 95.8368 29.1208C96.2377 29.1152 96.6357 29.1901 97.0072 29.341C97.3788 29.4918 97.7163 29.7156 97.9998 29.9992C98.2833 30.2827 98.5072 30.6202 98.658 30.9918C98.8089 31.3633 98.8838 31.7613 98.8782 32.1622C98.8726 32.5632 98.7867 32.9589 98.6256 33.3261C98.4644 33.6933 98.2313 34.0245 97.94 34.3L88.04 44.2C87.7622 44.4823 87.4313 44.7067 87.0664 44.8605C86.7014 45.0142 86.3096 45.0942 85.9136 45.0957C85.5176 45.0973 85.1252 45.0205 84.759 44.8696C84.3928 44.7188 84.0601 44.4969 83.7802 44.2168C83.5002 43.9368 83.2784 43.6041 83.1276 43.2379C82.9769 42.8716 82.9001 42.4792 82.9017 42.0832C82.9034 41.6872 82.9835 41.2954 83.1373 40.9305C83.2911 40.5656 83.5157 40.2347 83.798 39.957L93.699 30.059ZM109 61C109.796 61 110.559 61.3161 111.121 61.8787C111.684 62.4413 112 63.2044 112 64C112 64.7956 111.684 65.5587 111.121 66.1213C110.559 66.6839 109.796 67 109 67H95C94.2044 67 93.4413 66.6839 92.8787 66.1213C92.3161 65.5587 92 64.7956 92 64C92 63.2044 92.3161 62.4413 92.8787 61.8787C93.4413 61.3161 94.2044 61 95 61H109ZM97.941 93.699C98.2233 93.9768 98.4477 94.3077 98.6015 94.6726C98.7552 95.0376 98.8352 95.4294 98.8367 95.8254C98.8383 96.2214 98.7615 96.6138 98.6106 96.98C98.4598 97.3462 98.2379 97.6789 97.9578 97.9588C97.6778 98.2388 97.3451 98.4606 96.9789 98.6114C96.6126 98.7621 96.2202 98.8389 95.8242 98.8372C95.4282 98.8356 95.0364 98.7555 94.6715 98.6017C94.3066 98.4479 93.9757 98.2233 93.698 97.941L83.799 88.041C83.5167 87.7632 83.2923 87.4323 83.1385 87.0674C82.9848 86.7024 82.9048 86.3106 82.9033 85.9146C82.9017 85.5186 82.9785 85.1262 83.1294 84.76C83.2802 84.3938 83.5021 84.0611 83.7822 83.7812C84.0622 83.5012 84.3949 83.2794 84.7611 83.1286C85.1273 82.9779 85.5198 82.9011 85.9158 82.9027C86.3118 82.9044 86.7036 82.9845 87.0685 83.1383C87.4334 83.2921 87.7643 83.5167 88.042 83.799L97.941 93.699ZM61 95C61 94.2044 61.3161 93.4413 61.8787 92.8787C62.4413 92.3161 63.2044 92 64 92C64.7956 92 65.5587 92.3161 66.1213 92.8787C66.6839 93.4413 67 94.2044 67 95V109C67 109.796 66.6839 110.559 66.1213 111.121C65.5587 111.684 64.7956 112 64 112C63.2044 112 62.4413 111.684 61.8787 111.121C61.3161 110.559 61 109.796 61 109V95ZM39.958 83.799C40.2366 83.5204 40.5673 83.2994 40.9314 83.1486C41.2954 82.9979 41.6855 82.9202 42.0795 82.9202C42.4735 82.9202 42.8636 82.9979 43.2276 83.1486C43.5917 83.2994 43.9224 83.5204 44.201 83.799C44.4796 84.0776 44.7006 84.4083 44.8514 84.7724C45.0021 85.1364 45.0798 85.5265 45.0798 85.9205C45.0798 86.3145 45.0021 86.7046 44.8514 87.0686C44.7006 87.4327 44.4796 87.7634 44.201 88.042L34.301 97.942C34.0232 98.2243 33.6923 98.4487 33.3274 98.6025C32.9624 98.7562 32.5706 98.8362 32.1746 98.8377C31.7786 98.8393 31.3862 98.7625 31.02 98.6116C30.6538 98.4608 30.3212 98.2389 30.0412 97.9588C29.7612 97.6788 29.5394 97.3461 29.3886 96.9799C29.2379 96.6136 29.1611 96.2212 29.1628 95.8252C29.1644 95.4292 29.2445 95.0374 29.3983 94.6725C29.5521 94.3076 29.7767 93.9767 30.059 93.699L39.958 83.799ZM33 61C33.7956 61 34.5587 61.3161 35.1213 61.8787C35.6839 62.4413 36 63.2044 36 64C36 64.7956 35.6839 65.5587 35.1213 66.1213C34.5587 66.6839 33.7956 67 33 67H19C18.2044 67 17.4413 66.6839 16.8787 66.1213C16.3161 65.5587 16 64.7956 16 64C16 63.2044 16.3161 62.4413 16.8787 61.8787C17.4413 61.3161 18.2044 61 19 61H33ZM44.201 39.958C44.4796 40.2366 44.7006 40.5673 44.8514 40.9314C45.0021 41.2954 45.0798 41.6855 45.0798 42.0795C45.0798 42.4735 45.0021 42.8636 44.8514 43.2276C44.7006 43.5917 44.4796 43.9224 44.201 44.201C43.9224 44.4796 43.5917 44.7006 43.2276 44.8514C42.8636 45.0021 42.4735 45.0798 42.0795 45.0798C41.6855 45.0798 41.2954 45.0021 40.9314 44.8514C40.5673 44.7006 40.2366 44.4796 39.958 44.201L30.058 34.301C29.7757 34.0232 29.5513 33.6923 29.3975 33.3274C29.2438 32.9624 29.1638 32.5706 29.1623 32.1746C29.1607 31.7786 29.2375 31.3862 29.3884 31.02C29.5392 30.6538 29.7611 30.3212 30.0412 30.0412C30.3212 29.7612 30.6539 29.5394 31.0201 29.3886C31.3864 29.2379 31.7788 29.1611 32.1748 29.1628C32.5708 29.1644 32.9626 29.2445 33.3275 29.3983C33.6924 29.5521 34.0233 29.7767 34.301 30.059L44.201 39.958Z" fill="#EF9F27"/>
</svg>
