<svg width="127" height="126" viewBox="0 0 127 126" fill="none" xmlns="http://www.w3.org/2000/svg">
<path d="M86.79 38.1351C92.976 31.3471 104 36.4051 104 45.4461C104 51.2751 99.522 56.0001 94 56.0001H23" stroke="#D3D1C7" stroke-width="4" stroke-miterlimit="10" stroke-linecap="round"/>
<path d="M59.128 85.8681C65.42 92.5181 77 87.8721 77 78.5561C77 72.7261 72.35 68.0001 66.615 68.0001H23" stroke="#D3D1C7" stroke-width="4" stroke-miterlimit="10" stroke-linecap="round"/>
<path d="M65.578 55.3661L64.374 54.6781C64.4798 54.2328 64.4788 53.7688 64.371 53.3241L65.578 52.6341C65.6737 52.58 65.7578 52.5074 65.8253 52.4206C65.8928 52.3338 65.9424 52.2344 65.9711 52.1282C65.9999 52.022 66.0073 51.9112 65.9928 51.8022C65.9783 51.6931 65.9424 51.5881 65.887 51.4931C65.7734 51.3009 65.5889 51.1611 65.3731 51.1038C65.1574 51.0466 64.9278 51.0765 64.734 51.1871L63.528 51.8771C63.1928 51.5601 62.7869 51.3277 62.344 51.1991V49.8201C62.3362 49.6009 62.2441 49.3932 62.0868 49.2404C61.9295 49.0876 61.7192 49.0015 61.5 49.0001C61.2801 48.9997 61.0689 49.0853 60.9112 49.2384C60.7535 49.3916 60.662 49.6003 60.656 49.8201V51.2001C60.2139 51.3295 59.8081 51.5603 59.471 51.8741L58.266 51.1851C58.1459 51.1167 58.011 51.0787 57.8729 51.0744C57.7348 51.07 57.5977 51.0995 57.4736 51.1602C57.3495 51.2209 57.2421 51.3111 57.1608 51.4228C57.0795 51.5344 57.0267 51.6643 57.007 51.8011C56.9852 51.9653 57.0131 52.1323 57.087 52.2806C57.161 52.4289 57.2776 52.5516 57.422 52.6331L58.626 53.3221C58.52 53.7671 58.521 54.2301 58.629 54.6751L57.422 55.3651C57.2776 55.4465 57.161 55.5692 57.087 55.7175C57.0131 55.8658 56.9852 56.0328 57.007 56.1971C57.028 56.3625 57.0984 56.5178 57.209 56.6427C57.3196 56.7675 57.4652 56.8562 57.627 56.8971C57.843 56.9543 58.073 56.9241 58.267 56.8131L59.472 56.1231C59.806 56.4411 60.212 56.6731 60.656 56.7981V58.1801C60.6637 58.3992 60.7558 58.6069 60.9131 58.7597C61.0704 58.9125 61.2807 58.9987 61.5 59.0001C61.7198 59.0004 61.931 58.9149 62.0887 58.7617C62.2464 58.6085 62.338 58.3998 62.344 58.1801V56.7971C62.785 56.6681 63.191 56.4371 63.528 56.1241L64.734 56.8141C64.854 56.8827 64.989 56.9209 65.1271 56.9253C65.2653 56.9298 65.4025 56.9004 65.5266 56.8396C65.6508 56.7788 65.7583 56.6886 65.8395 56.5768C65.9208 56.465 65.9735 56.3349 65.993 56.1981C66.0147 56.0338 65.9869 55.8668 65.9129 55.7185C65.8389 55.5702 65.7223 55.4475 65.578 55.3661ZM60.866 55.0861C60.6488 54.9643 60.4732 54.7799 60.3623 54.5569C60.2514 54.334 60.2101 54.0828 60.244 53.8361C60.2765 53.5885 60.3826 53.3563 60.5483 53.1695C60.7141 52.9827 60.932 52.8499 61.174 52.7881C61.4147 52.7237 61.6691 52.7315 61.9054 52.8106C62.1417 52.8898 62.3495 53.0367 62.503 53.2331C62.6553 53.4297 62.7455 53.6672 62.7621 53.9154C62.7786 54.1635 62.7208 54.411 62.596 54.6261C62.4249 54.9136 62.1481 55.1228 61.8247 55.2088C61.5014 55.2948 61.1572 55.2507 60.866 55.0861Z" fill="#378ADD"/>
<path d="M86.578 67.3661L85.374 66.6771C85.4796 66.2321 85.4786 65.7685 85.371 65.3241L86.578 64.6341C86.6737 64.58 86.7578 64.5074 86.8253 64.4206C86.8928 64.3338 86.9424 64.2344 86.9711 64.1282C86.9999 64.022 87.0072 63.9112 86.9928 63.8022C86.9783 63.6931 86.9424 63.5881 86.887 63.4931C86.7734 63.3009 86.5889 63.1611 86.3731 63.1038C86.1574 63.0466 85.9278 63.0765 85.734 63.1871L84.528 63.8771C84.1927 63.5605 83.7868 63.3284 83.344 63.2001V61.8201C83.3362 61.6009 83.2441 61.3932 83.0868 61.2404C82.9295 61.0876 82.7192 61.0015 82.5 61.0001C82.2801 60.9997 82.0689 61.0853 81.9112 61.2384C81.7535 61.3916 81.6619 61.6003 81.656 61.8201V63.2001C81.2139 63.3295 80.8081 63.5603 80.471 63.8741L79.266 63.1851C79.1459 63.1167 79.011 63.0787 78.8729 63.0744C78.7348 63.07 78.5977 63.0995 78.4736 63.1602C78.3495 63.2209 78.2421 63.3111 78.1608 63.4228C78.0795 63.5344 78.0267 63.6643 78.007 63.8011C77.9852 63.9653 78.0131 64.1323 78.087 64.2806C78.161 64.4289 78.2776 64.5517 78.422 64.6331L79.626 65.3221C79.52 65.7671 79.521 66.2311 79.629 66.6751L78.422 67.3651C78.2776 67.4465 78.161 67.5692 78.087 67.7175C78.0131 67.8658 77.9852 68.0328 78.007 68.1971C78.028 68.3625 78.0984 68.5178 78.209 68.6427C78.3196 68.7676 78.4652 68.8562 78.627 68.8971C78.843 68.9543 79.073 68.9241 79.267 68.8131L80.472 68.1231C80.806 68.4411 81.212 68.6731 81.656 68.7981V70.1801C81.6637 70.3992 81.7558 70.6069 81.9131 70.7597C82.0704 70.9125 82.2807 70.9987 82.5 71.0001C82.7198 71.0004 82.931 70.9149 83.0887 70.7617C83.2464 70.6085 83.338 70.3998 83.344 70.1801V68.7971C83.785 68.6681 84.191 68.4371 84.528 68.1241L85.734 68.8141C85.854 68.8827 85.989 68.9209 86.1271 68.9253C86.2653 68.9298 86.4025 68.9004 86.5266 68.8396C86.6508 68.7788 86.7582 68.6886 86.8395 68.5768C86.9208 68.465 86.9735 68.3349 86.9929 68.1981C87.0147 68.0338 86.9868 67.8668 86.9129 67.7185C86.8389 67.5702 86.7223 67.4475 86.578 67.3661ZM81.866 67.0861C81.6487 66.9643 81.4732 66.7799 81.3623 66.5569C81.2514 66.334 81.2101 66.0828 81.244 65.8361C81.2765 65.5885 81.3826 65.3563 81.5483 65.1695C81.7141 64.9827 81.932 64.8499 82.174 64.7881C82.4147 64.7237 82.6691 64.7315 82.9054 64.8106C83.1417 64.8898 83.3495 65.0367 83.503 65.2331C83.6553 65.4297 83.7455 65.6672 83.762 65.9154C83.7786 66.1635 83.7208 66.411 83.596 66.6261C83.4249 66.9136 83.1481 67.1228 82.8247 67.2088C82.5014 67.2948 82.1572 67.2507 81.866 67.0861Z" fill="#378ADD"/>
<path d="M47.578 87.3661L46.373 86.6771C46.479 86.2322 46.4783 85.7686 46.371 85.3241L47.578 84.6341C47.6737 84.58 47.7578 84.5074 47.8253 84.4206C47.8928 84.3338 47.9424 84.2344 47.9711 84.1282C47.9999 84.022 48.0073 83.9112 47.9928 83.8022C47.9784 83.6931 47.9424 83.5881 47.887 83.4931C47.7734 83.3009 47.5889 83.1611 47.3732 83.1038C47.1574 83.0466 46.9278 83.0765 46.734 83.1871L45.528 83.8771C45.1927 83.5605 44.7868 83.3284 44.344 83.2001V81.8201C44.3362 81.6009 44.2441 81.3932 44.0868 81.2404C43.9295 81.0876 43.7192 81.0015 43.5 81.0001C43.2801 80.9997 43.0689 81.0853 42.9112 81.2384C42.7535 81.3916 42.662 81.6003 42.656 81.8201V83.2001C42.2139 83.3295 41.8081 83.5603 41.471 83.8741L40.266 83.1851C40.1459 83.1167 40.011 83.0787 39.8729 83.0744C39.7348 83.07 39.5977 83.0995 39.4736 83.1602C39.3495 83.2209 39.2421 83.3111 39.1608 83.4228C39.0795 83.5344 39.0267 83.6643 39.007 83.8011C38.9852 83.9653 39.0131 84.1323 39.087 84.2806C39.161 84.4289 39.2776 84.5517 39.422 84.6331L40.626 85.3221C40.52 85.7671 40.521 86.2311 40.629 86.6751L39.422 87.3651C39.2776 87.4465 39.161 87.5692 39.087 87.7175C39.0131 87.8658 38.9852 88.0328 39.007 88.1971C39.028 88.3625 39.0984 88.5178 39.209 88.6427C39.3196 88.7676 39.4652 88.8562 39.627 88.8971C39.843 88.9543 40.073 88.9241 40.267 88.8131L41.472 88.1231C41.806 88.4411 42.212 88.6731 42.656 88.7981V90.1801C42.6637 90.3992 42.7558 90.6069 42.9131 90.7597C43.0704 90.9125 43.2807 90.9987 43.5 91.0001C43.7198 91.0004 43.931 90.9149 44.0887 90.7617C44.2464 90.6085 44.338 90.3998 44.344 90.1801V88.7971C44.785 88.6681 45.191 88.4371 45.528 88.1241L46.734 88.8141C46.854 88.8827 46.989 88.9209 47.1271 88.9253C47.2653 88.9298 47.4025 88.9004 47.5266 88.8396C47.6508 88.7788 47.7582 88.6886 47.8395 88.5768C47.9208 88.465 47.9735 88.3349 47.993 88.1981C48.0147 88.0338 47.9869 87.8668 47.9129 87.7185C47.8389 87.5702 47.7223 87.4475 47.578 87.3661ZM42.866 87.0861C42.6488 86.9643 42.4732 86.7799 42.3623 86.5569C42.2514 86.334 42.2101 86.0828 42.244 85.8361C42.2765 85.5885 42.3826 85.3563 42.5483 85.1695C42.7141 84.9827 42.932 84.8499 43.174 84.7881C43.4147 84.7237 43.6691 84.7315 43.9054 84.8106C44.1417 84.8898 44.3495 85.0367 44.503 85.2331C44.6553 85.4297 44.7455 85.6672 44.7621 85.9154C44.7786 86.1635 44.7208 86.411 44.596 86.6261C44.4249 86.9136 44.1481 87.1228 43.8247 87.2088C43.5014 87.2948 43.1572 87.2507 42.866 87.0861Z" fill="#378ADD"/>
</svg>
