<svg width="128" height="128" viewBox="0 0 128 128" fill="none" xmlns="http://www.w3.org/2000/svg">
<g clip-path="url(#clip0_35_7119)">
<mask id="mask0_35_7119" style="mask-type:luminance" maskUnits="userSpaceOnUse" x="0" y="0" width="128" height="128">
<path d="M128 0H0V128H128V0Z" fill="white"/>
</mask>
<g mask="url(#mask0_35_7119)">
<mask id="mask1_35_7119" style="mask-type:luminance" maskUnits="userSpaceOnUse" x="0" y="0" width="128" height="128">
<path d="M128 0H0V128H128V0Z" fill="white"/>
</mask>
<g mask="url(#mask1_35_7119)">
<path d="M90.389 63.086C92.684 53.882 87.741 44.136 79.009 40.482C70.265 36.824 59.828 40.138 54.837 48.212C50.537 45.625 44.975 45.778 40.824 48.599C36.684 51.413 34.5 56.514 35.35 61.454C28.393 62.769 23.393 69.339 24.061 76.408C24.729 83.477 30.871 89.002 37.953 89H90.977C98.045 89 104 83.119 104 76.028C104 68.701 97.677 62.768 90.389 63.086Z" fill="#B5D4F4"/>
</g>
</g>
</g>
<defs>
<clipPath id="clip0_35_7119">
<rect width="128" height="128" fill="white"/>
</clipPath>
</defs>
</svg>
