<svg width="128" height="128" viewBox="0 0 128 128" fill="none" xmlns="http://www.w3.org/2000/svg">
<g clip-path="url(#clip0_35_7087)">
<mask id="mask0_35_7087" style="mask-type:luminance" maskUnits="userSpaceOnUse" x="0" y="0" width="128" height="128">
<path d="M128 0H0V128H128V0Z" fill="white"/>
</mask>
<g mask="url(#mask0_35_7087)">
<mask id="mask1_35_7087" style="mask-type:luminance" maskUnits="userSpaceOnUse" x="0" y="0" width="128" height="128">
<path d="M128 0H0V128H128V0Z" fill="white"/>
</mask>
<g mask="url(#mask1_35_7087)">
<mask id="mask2_35_7087" style="mask-type:alpha" maskUnits="userSpaceOnUse" x="0" y="0" width="128" height="128">
<path fill-rule="evenodd" clip-rule="evenodd" d="M128 0H0V128H128V0ZM45.766 92.974C38.521 92.975 32.695 87.199 32.058 80.28C31.528 74.502 34.688 68.84 39.878 66.326C40.247 62.511 42.231 58.899 45.485 56.626C48.651 54.414 52.628 53.774 56.265 54.747C61.172 49.404 69.122 47.396 76.085 50.39C82.787 53.273 86.825 59.99 86.861 66.953C92.21 68.707 95.999 73.88 95.999 79.641C95.999 86.699 90.286 92.974 82.882 92.974H82.879C74.634 92.966 66.39 92.969 58.145 92.971H58.14C54.0167 92.973 49.8913 92.974 45.766 92.974Z" fill="black"/>
</mask>
<g mask="url(#mask2_35_7087)">
<path d="M50 75C57.1797 75 63 69.1797 63 62C63 54.8203 57.1797 49 50 49C42.8203 49 37 54.8203 37 62C37 69.1797 42.8203 75 50 75Z" fill="#EF9F27"/>
<path d="M48 32C48 31.4696 48.2107 30.9609 48.5858 30.5858C48.9609 30.2107 49.4696 30 50 30C50.5304 30 51.0391 30.2107 51.4142 30.5858C51.7893 30.9609 52 31.4696 52 32V41.333C52 41.8634 51.7893 42.3721 51.4142 42.7472C51.0391 43.1223 50.5304 43.333 50 43.333C49.4696 43.333 48.9609 43.1223 48.5858 42.7472C48.2107 42.3721 48 41.8634 48 41.333V32ZM69.799 39.373C69.9835 39.182 70.2042 39.0296 70.4482 38.9248C70.6922 38.82 70.9546 38.7648 71.2202 38.7625C71.4858 38.7602 71.7491 38.8108 71.9949 38.9114C72.2407 39.0119 72.464 39.1604 72.6518 39.3482C72.8396 39.536 72.9881 39.7593 73.0886 40.0051C73.1892 40.2509 73.2398 40.5142 73.2375 40.7798C73.2352 41.0454 73.18 41.3078 73.0752 41.5518C72.9704 41.7958 72.818 42.0165 72.627 42.201L66.027 48.801C65.8412 48.9867 65.6207 49.134 65.3781 49.2344C65.1354 49.3349 64.8753 49.3866 64.6126 49.3866C64.35 49.3865 64.0899 49.3347 63.8473 49.2342C63.6046 49.1336 63.3842 48.9863 63.1985 48.8005C63.0128 48.6147 62.8655 48.3942 62.7651 48.1516C62.6646 47.9089 62.6129 47.6488 62.6129 47.3861C62.613 47.1235 62.6648 46.8634 62.7653 46.6208C62.8659 46.3781 63.0132 46.1577 63.199 45.972L69.799 39.373ZM80 60C80.5304 60 81.0391 60.2107 81.4142 60.5858C81.7893 60.9609 82 61.4696 82 62C82 62.5304 81.7893 63.0391 81.4142 63.4142C81.0391 63.7893 80.5304 64 80 64H70.667C70.1366 64 69.6279 63.7893 69.2528 63.4142C68.8777 63.0391 68.667 62.5304 68.667 62C68.667 61.4696 68.8777 60.9609 69.2528 60.5858C69.6279 60.2107 70.1366 60 70.667 60H80ZM72.627 81.799C72.818 81.9835 72.9704 82.2042 73.0752 82.4482C73.18 82.6922 73.2352 82.9546 73.2375 83.2202C73.2398 83.4858 73.1892 83.7491 73.0886 83.9949C72.9881 84.2407 72.8396 84.464 72.6518 84.6518C72.464 84.8396 72.2407 84.9881 71.9949 85.0886C71.7491 85.1892 71.4858 85.2398 71.2202 85.2375C70.9546 85.2352 70.6922 85.18 70.4482 85.0752C70.2042 84.9704 69.9835 84.818 69.799 84.627L63.199 78.027C62.824 77.6519 62.6134 77.1431 62.6134 76.6126C62.6135 76.0822 62.8244 75.5735 63.1995 75.1985C63.5746 74.8235 64.0834 74.6129 64.6139 74.6129C65.1443 74.613 65.653 74.8238 66.028 75.199L72.627 81.799ZM48 82.667C48 82.1366 48.2107 81.6279 48.5858 81.2528C48.9609 80.8777 49.4696 80.667 50 80.667C50.5304 80.667 51.0391 80.8777 51.4142 81.2528C51.7893 81.6279 52 82.1366 52 82.667V92C52 92.5304 51.7893 93.0391 51.4142 93.4142C51.0391 93.7893 50.5304 94 50 94C49.4696 94 48.9609 93.7893 48.5858 93.4142C48.2107 93.0391 48 92.5304 48 92V82.667ZM33.972 75.2C34.347 74.8248 34.8557 74.614 35.3861 74.6139C35.9166 74.6139 36.4254 74.8245 36.8005 75.1995C37.1756 75.5745 37.3865 76.0832 37.3866 76.6136C37.3866 77.1441 37.176 77.6529 36.801 78.028L30.201 84.628C30.0152 84.8137 29.7947 84.961 29.5521 85.0614C29.3094 85.1619 29.0493 85.2136 28.7866 85.2136C28.524 85.2135 28.2639 85.1617 28.0213 85.0612C27.7786 84.9606 27.5582 84.8133 27.3725 84.6275C27.1868 84.4417 27.0395 84.2212 26.9391 83.9786C26.8386 83.7359 26.7869 83.4758 26.7869 83.2132C26.787 82.9505 26.8388 82.6904 26.9393 82.4478C27.0399 82.2051 27.1872 81.9847 27.373 81.799L33.972 75.2ZM29.333 60C29.8634 60 30.3721 60.2107 30.7472 60.5858C31.1223 60.9609 31.333 61.4696 31.333 62C31.333 62.5304 31.1223 63.0391 30.7472 63.4142C30.3721 63.7893 29.8634 64 29.333 64H20C19.4696 64 18.9609 63.7893 18.5858 63.4142C18.2107 63.0391 18 62.5304 18 62C18 61.4696 18.2107 60.9609 18.5858 60.5858C18.9609 60.2107 19.4696 60 20 60H29.333ZM36.8 45.972C37.1751 46.347 37.386 46.8557 37.3861 47.3861C37.3861 47.9166 37.1755 48.4254 36.8005 48.8005C36.4255 49.1756 35.9168 49.3865 35.3864 49.3866C34.8559 49.3866 34.3471 49.176 33.972 48.801L27.372 42.201C26.997 41.8259 26.7864 41.3171 26.7864 40.7866C26.7865 40.2562 26.9974 39.7475 27.3725 39.3725C27.7476 38.9975 28.2564 38.7869 28.7869 38.7869C29.3173 38.787 29.826 38.9979 30.201 39.373L36.8 45.972Z" fill="#EF9F27"/>
</g>
<path d="M82.472 70.34C84.056 63.809 80.723 56.741 74.506 54.066C68.326 51.406 61.033 53.896 57.586 59.631C54.578 57.771 50.674 57.885 47.776 59.911C44.841 61.962 43.356 65.645 43.945 69.166C38.975 70.132 35.585 74.94 36.043 79.933C36.501 84.919 40.709 89.001 45.767 89C58.137 89 70.512 88.989 82.884 89C87.94 89 92 84.654 92 79.66C92 74.503 87.689 70.107 82.472 70.34Z" fill="#B5D4F4"/>
<path d="M52 95V98" stroke="#042C53" stroke-width="4" stroke-linecap="round"/>
<path d="M64 87V90" stroke="#042C53" stroke-width="4" stroke-linecap="round"/>
<path d="M76 95V98" stroke="#042C53" stroke-width="4" stroke-linecap="round"/>
</g>
</g>
</g>
<defs>
<clipPath id="clip0_35_7087">
<rect width="128" height="128" fill="white"/>
</clipPath>
</defs>
</svg>
