<svg width="128" height="128" viewBox="0 0 128 128" fill="none" xmlns="http://www.w3.org/2000/svg">
<g clip-path="url(#clip0_35_7052)">
<mask id="mask0_35_7052" style="mask-type:luminance" maskUnits="userSpaceOnUse" x="0" y="0" width="128" height="128">
<path d="M128 0H0V128H128V0Z" fill="white"/>
</mask>
<g mask="url(#mask0_35_7052)">
<mask id="mask1_35_7052" style="mask-type:luminance" maskUnits="userSpaceOnUse" x="0" y="0" width="128" height="128">
<path d="M128 0H0V128H128V0Z" fill="white"/>
</mask>
<g mask="url(#mask1_35_7052)">
<path d="M90.389 63.086C92.684 53.882 87.741 44.136 79.009 40.482C70.265 36.824 59.828 40.138 54.837 48.212C50.537 45.625 44.975 45.778 40.824 48.599C36.684 51.413 34.5 56.514 35.35 61.454C28.393 62.769 23.393 69.339 24.061 76.408C24.729 83.477 30.871 89.002 37.953 89H90.977C98.045 89 104 83.119 104 76.028C104 68.701 97.677 62.768 90.389 63.086Z" fill="#B5D4F4"/>
<path d="M52.0001 94C51.6016 93.9927 51.2056 94.0649 50.8353 94.2124C50.465 94.3598 50.1278 94.5796 49.8434 94.8589C49.5591 95.1381 49.3332 95.4712 49.1789 95.8388C49.0247 96.2063 48.9453 96.6009 48.9453 96.9994C48.9453 97.398 49.0247 97.7926 49.1789 98.1601C49.3332 98.5277 49.5591 98.8608 49.8434 99.14C50.1278 99.4193 50.465 99.6391 50.8353 99.7865C51.2056 99.934 51.6016 100.006 52.0001 99.999C52.7861 99.9846 53.5351 99.6623 54.0859 99.1013C54.6367 98.5404 54.9453 97.7856 54.9453 96.9994C54.9453 96.2133 54.6367 95.4585 54.0859 94.8976C53.5351 94.3366 52.7861 94.0143 52.0001 94Z" fill="#378ADD"/>
<path d="M64.0001 86C63.6016 85.9927 63.2056 86.0649 62.8353 86.2124C62.465 86.3598 62.1278 86.5796 61.8434 86.8589C61.5591 87.1381 61.3332 87.4712 61.1789 87.8388C61.0247 88.2063 60.9453 88.6009 60.9453 88.9994C60.9453 89.398 61.0247 89.7926 61.1789 90.1601C61.3332 90.5277 61.5591 90.8608 61.8434 91.14C62.1278 91.4193 62.465 91.6391 62.8353 91.7865C63.2056 91.934 63.6016 92.0062 64.0001 91.999C64.7861 91.9846 65.5351 91.6623 66.0859 91.1013C66.6367 90.5404 66.9453 89.7856 66.9453 88.9994C66.9453 88.2133 66.6367 87.4585 66.0859 86.8976C65.5351 86.3366 64.7861 86.0143 64.0001 86Z" fill="#378ADD"/>
<path d="M76.0001 94C75.6016 93.9927 75.2056 94.0649 74.8353 94.2124C74.465 94.3598 74.1278 94.5796 73.8434 94.8589C73.559 95.1381 73.3332 95.4712 73.1789 95.8388C73.0247 96.2063 72.9453 96.6009 72.9453 96.9994C72.9453 97.398 73.0247 97.7926 73.1789 98.1601C73.3332 98.5277 73.559 98.8608 73.8434 99.14C74.1278 99.4193 74.465 99.6391 74.8353 99.7865C75.2056 99.934 75.6016 100.006 76.0001 99.999C76.7861 99.9846 77.5351 99.6623 78.0859 99.1013C78.6367 98.5404 78.9453 97.7856 78.9453 96.9994C78.9453 96.2133 78.6367 95.4585 78.0859 94.8976C77.5351 94.3366 76.7861 94.0143 76.0001 94Z" fill="#378ADD"/>
</g>
</g>
</g>
<defs>
<clipPath id="clip0_35_7052">
<rect width="128" height="128" fill="white"/>
</clipPath>
</defs>
</svg>
