<svg width="128" height="128" viewBox="0 0 128 128" fill="none" xmlns="http://www.w3.org/2000/svg">
<g clip-path="url(#clip0_35_7017)">
<mask id="mask0_35_7017" style="mask-type:luminance" maskUnits="userSpaceOnUse" x="0" y="0" width="128" height="128">
<path d="M128 0H0V128H128V0Z" fill="white"/>
</mask>
<g mask="url(#mask0_35_7017)">
<mask id="mask1_35_7017" style="mask-type:luminance" maskUnits="userSpaceOnUse" x="0" y="0" width="128" height="128">
<path d="M128 0H0V128H128V0Z" fill="white"/>
</mask>
<g mask="url(#mask1_35_7017)">
<mask id="mask2_35_7017" style="mask-type:alpha" maskUnits="userSpaceOnUse" x="0" y="0" width="128" height="128">
<path fill-rule="evenodd" clip-rule="evenodd" d="M128 0H0V128H128V0ZM37.952 93H90.975C100.227 93 107.998 85.353 107.998 76.028C107.998 68.022 102.305 61.35 94.925 59.551C95.362 49.901 89.675 40.609 80.551 36.792C71.107 32.842 60.066 35.612 53.531 43.238C48.571 41.596 42.981 42.296 38.574 45.291C34.146 48.3 31.431 53.281 31.184 58.538C24.064 61.463 19.328 68.851 20.078 76.784C20.942 85.929 28.828 93.002 37.952 93Z" fill="black"/>
</mask>
<g mask="url(#mask2_35_7017)">
<path d="M39 60C43.9706 60 48 55.9706 48 51C48 46.0294 43.9706 42 39 42C34.0294 42 30 46.0294 30 51C30 55.9706 34.0294 60 39 60Z" fill="#EF9F27"/>
<path d="M37.688 31.313C37.688 30.965 37.8262 30.6313 38.0723 30.3853C38.3183 30.1392 38.652 30.001 39 30.001C39.3479 30.001 39.6817 30.1392 39.9277 30.3853C40.1737 30.6313 40.312 30.965 40.312 31.313V37.438C40.312 37.7859 40.1737 38.1197 39.9277 38.3657C39.6817 38.6117 39.3479 38.75 39 38.75C38.652 38.75 38.3183 38.6117 38.0723 38.3657C37.8262 38.1197 37.688 37.7859 37.688 37.438V31.313ZM51.993 36.15C52.1149 36.0281 52.2597 35.9315 52.4189 35.8655C52.5782 35.7996 52.7489 35.7657 52.9213 35.7657C53.0937 35.7658 53.2644 35.7998 53.4237 35.8658C53.5829 35.9318 53.7276 36.0285 53.8495 36.1505C53.9713 36.2724 54.068 36.4172 54.1339 36.5764C54.1999 36.7357 54.2338 36.9064 54.2337 37.0788C54.2337 37.2512 54.1997 37.4219 54.1337 37.5812C54.0676 37.7404 53.9709 37.8851 53.849 38.007L49.519 42.337C49.3972 42.4589 49.2526 42.5557 49.0934 42.6217C48.9342 42.6877 48.7635 42.7218 48.5912 42.7219C48.4188 42.722 48.2482 42.6881 48.0889 42.6222C47.9296 42.5564 47.7849 42.4598 47.663 42.338C47.541 42.2162 47.4443 42.0716 47.3783 41.9124C47.3122 41.7532 47.2782 41.5825 47.2781 41.4102C47.278 41.2378 47.3118 41.0672 47.3777 40.9079C47.4436 40.7486 47.5402 40.6039 47.662 40.482L51.993 36.15ZM58.688 49.688C59.0359 49.688 59.3697 49.8262 59.6157 50.0723C59.8617 50.3183 60 50.652 60 51C60 51.3479 59.8617 51.6817 59.6157 51.9277C59.3697 52.1737 59.0359 52.312 58.688 52.312H52.562C52.214 52.312 51.8803 52.1737 51.6343 51.9277C51.3882 51.6817 51.25 51.3479 51.25 51C51.25 50.652 51.3882 50.3183 51.6343 50.0723C51.8803 49.8262 52.214 49.688 52.562 49.688H58.688ZM53.85 63.993C53.9718 64.1149 54.0685 64.2597 54.1344 64.4189C54.2004 64.5782 54.2343 64.7489 54.2342 64.9213C54.2342 65.0937 54.2002 65.2644 54.1342 65.4237C54.0681 65.5829 53.9714 65.7276 53.8495 65.8495C53.7275 65.9713 53.5828 66.068 53.4235 66.1339C53.2642 66.1999 53.0935 66.2338 52.9211 66.2337C52.7487 66.2337 52.578 66.1997 52.4188 66.1337C52.2595 66.0676 52.1148 65.9709 51.993 65.849L47.663 61.519C47.541 61.3972 47.4443 61.2526 47.3783 61.0934C47.3122 60.9342 47.2782 60.7635 47.2781 60.5912C47.278 60.4188 47.3118 60.2482 47.3777 60.0889C47.4436 59.9296 47.5402 59.7849 47.662 59.663C47.7838 59.541 47.9284 59.4443 48.0876 59.3783C48.2468 59.3122 48.4174 59.2782 48.5898 59.2781C48.7621 59.278 48.9328 59.3118 49.0921 59.3777C49.2513 59.4436 49.396 59.5402 49.518 59.662L53.85 63.993ZM37.688 64.563C37.688 64.215 37.8262 63.8813 38.0723 63.6353C38.3183 63.3892 38.652 63.251 39 63.251C39.3479 63.251 39.6817 63.3892 39.9277 63.6353C40.1737 63.8813 40.312 64.215 40.312 64.563V70.687C40.312 71.0349 40.1737 71.3687 39.9277 71.6147C39.6817 71.8607 39.3479 71.999 39 71.999C38.652 71.999 38.3183 71.8607 38.0723 71.6147C37.8262 71.3687 37.688 71.0349 37.688 70.687V64.563ZM28.482 59.662C28.6038 59.5401 28.7485 59.4434 28.9077 59.3775C29.067 59.3115 29.2376 59.2776 29.41 59.2776C29.5823 59.2776 29.753 59.3115 29.9122 59.3775C30.0714 59.4434 30.2161 59.5401 30.338 59.662C30.4598 59.7838 30.5565 59.9285 30.6225 60.0877C30.6884 60.247 30.7224 60.4176 30.7224 60.59C30.7224 60.7623 30.6884 60.933 30.6225 61.0922C30.5565 61.2514 30.4598 61.3961 30.338 61.518L26.007 65.849C25.8851 65.9708 25.7404 66.0675 25.5812 66.1335C25.422 66.1994 25.2513 66.2334 25.079 66.2334C24.9066 66.2334 24.736 66.1994 24.5767 66.1335C24.4175 66.0675 24.2728 65.9708 24.151 65.849C24.0291 65.7271 23.9324 65.5824 23.8665 65.4232C23.8005 65.264 23.7666 65.0933 23.7666 64.921C23.7666 64.7486 23.8005 64.578 23.8665 64.4187C23.9324 64.2595 24.0291 64.1148 24.151 63.993L28.482 59.662ZM25.438 49.688C25.7859 49.688 26.1197 49.8262 26.3657 50.0723C26.6117 50.3183 26.75 50.652 26.75 51C26.75 51.3479 26.6117 51.6817 26.3657 51.9277C26.1197 52.1737 25.7859 52.312 25.438 52.312H19.313C18.965 52.312 18.6313 52.1737 18.3853 51.9277C18.1392 51.6817 18.001 51.3479 18.001 51C18.001 50.652 18.1392 50.3183 18.3853 50.0723C18.6313 49.8262 18.965 49.688 19.313 49.688H25.438ZM30.338 40.482C30.4598 40.6038 30.5565 40.7485 30.6225 40.9077C30.6884 41.067 30.7224 41.2376 30.7224 41.41C30.7224 41.5823 30.6884 41.753 30.6225 41.9122C30.5565 42.0714 30.4598 42.2161 30.338 42.338C30.2161 42.4598 30.0714 42.5565 29.9122 42.6225C29.753 42.6884 29.5823 42.7224 29.41 42.7224C29.2376 42.7224 29.067 42.6884 28.9077 42.6225C28.7485 42.5565 28.6038 42.4598 28.482 42.338L24.151 38.007C24.0291 37.8851 23.9324 37.7404 23.8665 37.5812C23.8005 37.422 23.7666 37.2513 23.7666 37.079C23.7666 36.9066 23.8005 36.736 23.8665 36.5767C23.9324 36.4175 24.0291 36.2728 24.151 36.151C24.2728 36.0291 24.4175 35.9324 24.5767 35.8665C24.736 35.8005 24.9066 35.7666 25.079 35.7666C25.2513 35.7666 25.422 35.8005 25.5812 35.8665C25.7404 35.9324 25.8851 36.0291 26.007 36.151L30.338 40.482Z" fill="#EF9F27"/>
</g>
<path d="M90.389 63.086C92.684 53.882 87.7411 44.136 79.009 40.482C70.265 36.824 59.828 40.138 54.837 48.212C50.537 45.625 44.975 45.778 40.824 48.599C36.684 51.413 34.5 56.514 35.35 61.454C28.393 62.769 23.393 69.339 24.061 76.408C24.729 83.477 30.871 89.002 37.953 89H90.977C98.045 89 104 83.119 104 76.028C104 68.701 97.677 62.768 90.389 63.086Z" fill="#B5D4F4"/>
<path d="M52 91V103" stroke="#042C53" stroke-width="4" stroke-linecap="round"/>
<path d="M64 83V95" stroke="#042C53" stroke-width="4" stroke-linecap="round"/>
<path d="M76 91V103" stroke="#042C53" stroke-width="4" stroke-linecap="round"/>
</g>
</g>
</g>
<defs>
<clipPath id="clip0_35_7017">
<rect width="128" height="128" fill="white"/>
</clipPath>
</defs>
</svg>
