<svg width="128" height="128" viewBox="0 0 128 128" fill="none" xmlns="http://www.w3.org/2000/svg">
<g clip-path="url(#clip0_35_6998)">
<mask id="mask0_35_6998" style="mask-type:luminance" maskUnits="userSpaceOnUse" x="0" y="0" width="128" height="128">
<path d="M128 0H0V128H128V0Z" fill="white"/>
</mask>
<g mask="url(#mask0_35_6998)">
<mask id="mask1_35_6998" style="mask-type:luminance" maskUnits="userSpaceOnUse" x="0" y="0" width="128" height="128">
<path d="M128 0H0V128H128V0Z" fill="white"/>
</mask>
<g mask="url(#mask1_35_6998)">
<mask id="mask2_35_6998" style="mask-type:alpha" maskUnits="userSpaceOnUse" x="0" y="0" width="128" height="128">
<path fill-rule="evenodd" clip-rule="evenodd" d="M128 0H0V128H128V0ZM45.766 92.974C38.521 92.975 32.695 87.199 32.058 80.28C31.528 74.502 34.688 68.84 39.878 66.326C40.247 62.511 42.231 58.899 45.485 56.626C48.651 54.414 52.628 53.774 56.265 54.747C61.172 49.404 69.122 47.396 76.085 50.39C82.787 53.273 86.825 59.99 86.861 66.953C92.21 68.707 95.999 73.88 95.999 79.641C95.999 86.699 90.286 92.974 82.882 92.974H82.879C74.634 92.966 66.39 92.969 58.145 92.971H58.14C54.0167 92.973 49.8913 92.974 45.766 92.974Z" fill="black"/>
</mask>
<g mask="url(#mask2_35_6998)">
<path d="M50 75C57.1797 75 63 69.1797 63 62C63 54.8203 57.1797 49 50 49C42.8203 49 37 54.8203 37 62C37 69.1797 42.8203 75 50 75Z" fill="#EF9F27"/>
<path d="M48 32C48 31.4696 48.2107 30.9609 48.5858 30.5858C48.9609 30.2107 49.4696 30 50 30C50.5304 30 51.0391 30.2107 51.4142 30.5858C51.7893 30.9609 52 31.4696 52 32V41.333C52 41.8634 51.7893 42.3721 51.4142 42.7472C51.0391 43.1223 50.5304 43.333 50 43.333C49.4696 43.333 48.9609 43.1223 48.5858 42.7472C48.2107 42.3721 48 41.8634 48 41.333V32ZM69.799 39.373C69.9835 39.182 70.2042 39.0296 70.4482 38.9248C70.6922 38.82 70.9546 38.7648 71.2202 38.7625C71.4858 38.7602 71.7491 38.8108 71.9949 38.9114C72.2407 39.0119 72.464 39.1604 72.6518 39.3482C72.8396 39.536 72.9881 39.7593 73.0886 40.0051C73.1892 40.2509 73.2398 40.5142 73.2375 40.7798C73.2352 41.0454 73.18 41.3078 73.0752 41.5518C72.9704 41.7958 72.818 42.0165 72.627 42.201L66.027 48.801C65.8412 48.9867 65.6207 49.134 65.3781 49.2344C65.1354 49.3349 64.8753 49.3866 64.6126 49.3866C64.35 49.3865 64.0899 49.3347 63.8473 49.2342C63.6046 49.1336 63.3842 48.9863 63.1985 48.8005C63.0128 48.6147 62.8655 48.3942 62.7651 48.1516C62.6646 47.9089 62.6129 47.6488 62.6129 47.3861C62.613 47.1235 62.6648 46.8634 62.7653 46.6208C62.8659 46.3781 63.0132 46.1577 63.199 45.972L69.799 39.373ZM80 60C80.5304 60 81.0391 60.2107 81.4142 60.5858C81.7893 60.9609 82 61.4696 82 62C82 62.5304 81.7893 63.0391 81.4142 63.4142C81.0391 63.7893 80.5304 64 80 64H70.667C70.1366 64 69.6279 63.7893 69.2528 63.4142C68.8777 63.0391 68.667 62.5304 68.667 62C68.667 61.4696 68.8777 60.9609 69.2528 60.5858C69.6279 60.2107 70.1366 60 70.667 60H80ZM72.627 81.799C72.818 81.9835 72.9704 82.2042 73.0752 82.4482C73.18 82.6922 73.2352 82.9546 73.2375 83.2202C73.2398 83.4858 73.1892 83.7491 73.0886 83.9949C72.9881 84.2407 72.8396 84.464 72.6518 84.6518C72.464 84.8396 72.2407 84.9881 71.9949 85.0886C71.7491 85.1892 71.4858 85.2398 71.2202 85.2375C70.9546 85.2352 70.6922 85.18 70.4482 85.0752C70.2042 84.9704 69.9835 84.818 69.799 84.627L63.199 78.027C62.824 77.6519 62.6134 77.1431 62.6134 76.6126C62.6135 76.0822 62.8244 75.5735 63.1995 75.1985C63.5746 74.8235 64.0834 74.6129 64.6139 74.6129C65.1443 74.613 65.653 74.8238 66.028 75.199L72.627 81.799ZM48 82.667C48 82.1366 48.2107 81.6279 48.5858 81.2528C48.9609 80.8777 49.4696 80.667 50 80.667C50.5304 80.667 51.0391 80.8777 51.4142 81.2528C51.7893 81.6279 52 82.1366 52 82.667V92C52 92.5304 51.7893 93.0391 51.4142 93.4142C51.0391 93.7893 50.5304 94 50 94C49.4696 94 48.9609 93.7893 48.5858 93.4142C48.2107 93.0391 48 92.5304 48 92V82.667ZM33.972 75.2C34.347 74.8248 34.8557 74.614 35.3861 74.6139C35.9166 74.6139 36.4254 74.8245 36.8005 75.1995C37.1756 75.5745 37.3865 76.0832 37.3866 76.6136C37.3866 77.1441 37.176 77.6529 36.801 78.028L30.201 84.628C30.0152 84.8137 29.7947 84.961 29.5521 85.0614C29.3094 85.1619 29.0493 85.2136 28.7866 85.2136C28.524 85.2135 28.2639 85.1617 28.0213 85.0612C27.7786 84.9606 27.5582 84.8133 27.3725 84.6275C27.1868 84.4417 27.0395 84.2212 26.9391 83.9786C26.8386 83.7359 26.7869 83.4758 26.7869 83.2132C26.787 82.9505 26.8388 82.6904 26.9393 82.4478C27.0399 82.2051 27.1872 81.9847 27.373 81.799L33.972 75.2ZM29.333 60C29.8634 60 30.3721 60.2107 30.7472 60.5858C31.1223 60.9609 31.333 61.4696 31.333 62C31.333 62.5304 31.1223 63.0391 30.7472 63.4142C30.3721 63.7893 29.8634 64 29.333 64H20C19.4696 64 18.9609 63.7893 18.5858 63.4142C18.2107 63.0391 18 62.5304 18 62C18 61.4696 18.2107 60.9609 18.5858 60.5858C18.9609 60.2107 19.4696 60 20 60H29.333ZM36.8 45.972C37.1751 46.347 37.386 46.8557 37.3861 47.3861C37.3861 47.9166 37.1755 48.4254 36.8005 48.8005C36.4255 49.1756 35.9168 49.3865 35.3864 49.3866C34.8559 49.3866 34.3471 49.176 33.972 48.801L27.372 42.201C26.997 41.8259 26.7864 41.3171 26.7864 40.7866C26.7865 40.2562 26.9974 39.7475 27.3725 39.3725C27.7476 38.9975 28.2564 38.7869 28.7869 38.7869C29.3173 38.787 29.826 38.9979 30.201 39.373L36.8 45.972Z" fill="#EF9F27"/>
</g>
<path d="M82.472 70.34C84.056 63.809 80.723 56.741 74.506 54.066C68.326 51.406 61.033 53.896 57.586 59.631C54.578 57.771 50.674 57.885 47.776 59.911C44.841 61.962 43.356 65.645 43.945 69.166C38.975 70.132 35.585 74.94 36.043 79.933C36.501 84.919 40.709 89.001 45.767 89C58.137 89 70.512 88.989 82.884 89C87.94 89 92 84.654 92 79.66C92 74.503 87.689 70.107 82.472 70.34Z" fill="#B5D4F4"/>
<path d="M52.578 98.366L51.373 97.677C51.479 97.2322 51.4783 96.7685 51.371 96.324L52.578 95.634C52.6737 95.5799 52.7578 95.5074 52.8253 95.4205C52.8928 95.3337 52.9424 95.2343 52.9711 95.1281C52.9999 95.022 53.0073 94.9112 52.9928 94.8021C52.9784 94.6931 52.9424 94.588 52.887 94.493C52.7734 94.3008 52.5889 94.161 52.3732 94.1038C52.1574 94.0465 51.9278 94.0764 51.734 94.187L50.528 94.877C50.1927 94.5604 49.7868 94.3283 49.344 94.2V92.82C49.3362 92.6008 49.2441 92.3931 49.0868 92.2403C48.9295 92.0875 48.7192 92.0014 48.5 92C48.2801 91.9997 48.0689 92.0852 47.9112 92.2384C47.7535 92.3916 47.662 92.6003 47.656 92.82V94.2C47.2139 94.3294 46.8081 94.5602 46.471 94.874L45.266 94.185C45.1459 94.1166 45.011 94.0786 44.8729 94.0743C44.7348 94.07 44.5977 94.0994 44.4736 94.1602C44.3495 94.2209 44.2421 94.311 44.1608 94.4227C44.0795 94.5344 44.0267 94.6643 44.007 94.801C43.9852 94.9653 44.0131 95.1323 44.087 95.2806C44.161 95.4288 44.2776 95.5516 44.422 95.633L45.626 96.322C45.52 96.767 45.521 97.231 45.629 97.675L44.422 98.365C44.2776 98.4464 44.161 98.5692 44.087 98.7174C44.0131 98.8657 43.9852 99.0327 44.007 99.197C44.028 99.3625 44.0984 99.5178 44.209 99.6426C44.3196 99.7675 44.4652 99.8561 44.627 99.897C44.843 99.9542 45.073 99.9241 45.267 99.813L46.472 99.123C46.806 99.441 47.212 99.673 47.656 99.798V101.18C47.6637 101.399 47.7558 101.607 47.9131 101.76C48.0704 101.912 48.2807 101.999 48.5 102C48.7198 102 48.931 101.915 49.0887 101.762C49.2464 101.608 49.338 101.4 49.344 101.18V99.797C49.785 99.668 50.191 99.437 50.528 99.124L51.734 99.814C51.854 99.8826 51.989 99.9208 52.1271 99.9253C52.2653 99.9297 52.4025 99.9003 52.5266 99.8395C52.6508 99.7788 52.7582 99.6885 52.8395 99.5767C52.9208 99.4649 52.9735 99.3349 52.993 99.198C53.0147 99.0337 52.9869 98.8667 52.9129 98.7184C52.8389 98.5702 52.7223 98.4474 52.578 98.366ZM47.866 98.086C47.6488 97.9642 47.4732 97.7798 47.3623 97.5569C47.2514 97.3339 47.2101 97.0827 47.244 96.836C47.2765 96.5884 47.3826 96.3562 47.5483 96.1694C47.7141 95.9827 47.932 95.8498 48.174 95.788C48.4147 95.7236 48.6691 95.7315 48.9054 95.8106C49.1417 95.8897 49.3495 96.0366 49.503 96.233C49.6553 96.4296 49.7455 96.6672 49.7621 96.9153C49.7786 97.1635 49.7208 97.4109 49.596 97.626C49.4249 97.9136 49.1481 98.1227 48.8247 98.2087C48.5014 98.2947 48.1572 98.2506 47.866 98.086Z" fill="#378ADD"/>
<path d="M67.578 90.366L66.374 89.677C66.4797 89.2321 66.4786 88.7685 66.371 88.324L67.578 87.634C67.6737 87.5799 67.7578 87.5074 67.8253 87.4205C67.8928 87.3337 67.9424 87.2343 67.9711 87.1281C67.9999 87.022 68.0073 86.9112 67.9928 86.8021C67.9783 86.6931 67.9424 86.588 67.887 86.493C67.7734 86.3008 67.5889 86.161 67.3731 86.1038C67.1574 86.0465 66.9278 86.0764 66.734 86.187L65.528 86.877C65.1927 86.5604 64.7868 86.3283 64.344 86.2V84.82C64.3362 84.6008 64.2441 84.3931 64.0868 84.2403C63.9295 84.0875 63.7192 84.0014 63.5 84C63.2801 83.9997 63.0689 84.0852 62.9112 84.2384C62.7535 84.3916 62.662 84.6003 62.656 84.82V86.2C62.2139 86.3294 61.8081 86.5602 61.471 86.874L60.266 86.185C60.1459 86.1166 60.011 86.0786 59.8729 86.0743C59.7348 86.07 59.5977 86.0994 59.4736 86.1602C59.3495 86.2209 59.2421 86.311 59.1608 86.4227C59.0795 86.5344 59.0267 86.6643 59.007 86.801C58.9852 86.9653 59.0131 87.1323 59.087 87.2806C59.161 87.4288 59.2776 87.5516 59.422 87.633L60.626 88.322C60.52 88.767 60.521 89.231 60.629 89.675L59.422 90.365C59.2776 90.4464 59.161 90.5692 59.087 90.7174C59.0131 90.8657 58.9852 91.0327 59.007 91.197C59.028 91.3625 59.0984 91.5178 59.209 91.6426C59.3196 91.7675 59.4652 91.8561 59.627 91.897C59.843 91.9542 60.073 91.9241 60.267 91.813L61.472 91.123C61.806 91.441 62.212 91.673 62.656 91.798V93.18C62.6637 93.3992 62.7558 93.6069 62.9131 93.7597C63.0704 93.9125 63.2807 93.9986 63.5 94C63.7198 94.0003 63.931 93.9148 64.0887 93.7616C64.2464 93.6084 64.338 93.3997 64.344 93.18V91.797C64.785 91.668 65.191 91.437 65.528 91.124L66.734 91.814C66.854 91.8826 66.989 91.9208 67.1271 91.9253C67.2653 91.9297 67.4025 91.9003 67.5266 91.8395C67.6508 91.7788 67.7583 91.6885 67.8395 91.5767C67.9208 91.4649 67.9735 91.3349 67.993 91.198C68.0147 91.0337 67.9869 90.8667 67.9129 90.7184C67.8389 90.5702 67.7223 90.4474 67.578 90.366ZM62.866 90.086C62.6488 89.9642 62.4732 89.7798 62.3623 89.5569C62.2514 89.3339 62.2101 89.0827 62.244 88.836C62.2765 88.5884 62.3826 88.3562 62.5483 88.1694C62.7141 87.9827 62.932 87.8498 63.174 87.788C63.4147 87.7236 63.6691 87.7315 63.9054 87.8106C64.1417 87.8897 64.3495 88.0366 64.503 88.233C64.6553 88.4296 64.7455 88.6672 64.762 88.9153C64.7786 89.1635 64.7208 89.4109 64.596 89.626C64.4249 89.9136 64.1481 90.1227 63.8247 90.2087C63.5014 90.2947 63.1572 90.2506 62.866 90.086Z" fill="#378ADD"/>
<path d="M82.578 98.366L81.374 97.677C81.4796 97.2321 81.4786 96.7685 81.371 96.324L82.578 95.634C82.6737 95.5799 82.7578 95.5074 82.8253 95.4205C82.8928 95.3337 82.9424 95.2343 82.9711 95.1281C82.9999 95.022 83.0072 94.9112 82.9928 94.8021C82.9783 94.6931 82.9424 94.588 82.887 94.493C82.7734 94.3008 82.5889 94.161 82.3731 94.1038C82.1574 94.0465 81.9278 94.0764 81.734 94.187L80.528 94.877C80.1927 94.5604 79.7868 94.3283 79.344 94.2V92.82C79.3362 92.6008 79.2441 92.3931 79.0868 92.2403C78.9295 92.0875 78.7192 92.0014 78.5 92C78.2801 91.9997 78.0689 92.0852 77.9112 92.2384C77.7535 92.3916 77.6619 92.6003 77.656 92.82V94.2C77.2139 94.3294 76.8081 94.5602 76.471 94.874L75.266 94.185C75.1459 94.1166 75.011 94.0786 74.8729 94.0743C74.7348 94.07 74.5977 94.0994 74.4736 94.1602C74.3495 94.2209 74.2421 94.311 74.1608 94.4227C74.0795 94.5344 74.0267 94.6643 74.007 94.801C73.9852 94.9653 74.0131 95.1323 74.087 95.2806C74.161 95.4288 74.2776 95.5516 74.422 95.633L75.626 96.322C75.52 96.767 75.521 97.231 75.629 97.675L74.422 98.365C74.2776 98.4464 74.161 98.5692 74.087 98.7174C74.0131 98.8657 73.9852 99.0327 74.007 99.197C74.028 99.3625 74.0984 99.5178 74.209 99.6426C74.3196 99.7675 74.4652 99.8561 74.627 99.897C74.843 99.9542 75.073 99.9241 75.267 99.813L76.472 99.123C76.806 99.441 77.212 99.673 77.656 99.798V101.18C77.6637 101.399 77.7558 101.607 77.9131 101.76C78.0704 101.912 78.2807 101.999 78.5 102C78.7198 102 78.931 101.915 79.0887 101.762C79.2464 101.608 79.338 101.4 79.344 101.18V99.797C79.785 99.668 80.191 99.437 80.528 99.124L81.734 99.814C81.854 99.8826 81.989 99.9208 82.1271 99.9253C82.2653 99.9297 82.4025 99.9003 82.5266 99.8395C82.6508 99.7788 82.7582 99.6885 82.8395 99.5767C82.9208 99.4649 82.9735 99.3349 82.9929 99.198C83.0147 99.0337 82.9868 98.8667 82.9129 98.7184C82.8389 98.5702 82.7223 98.4474 82.578 98.366ZM77.866 98.086C77.6487 97.9642 77.4732 97.7798 77.3623 97.5569C77.2514 97.3339 77.2101 97.0827 77.244 96.836C77.2765 96.5884 77.3826 96.3562 77.5483 96.1694C77.7141 95.9827 77.932 95.8498 78.174 95.788C78.4147 95.7236 78.6691 95.7315 78.9054 95.8106C79.1417 95.8897 79.3495 96.0366 79.503 96.233C79.6553 96.4296 79.7455 96.6672 79.762 96.9153C79.7786 97.1635 79.7208 97.4109 79.596 97.626C79.4249 97.9136 79.1481 98.1227 78.8247 98.2087C78.5014 98.2947 78.1572 98.2506 77.866 98.086Z" fill="#378ADD"/>
</g>
</g>
</g>
<defs>
<clipPath id="clip0_35_6998">
<rect width="128" height="128" fill="white"/>
</clipPath>
</defs>
</svg>
