<svg width="128" height="128" viewBox="0 0 128 128" fill="none" xmlns="http://www.w3.org/2000/svg">
<g clip-path="url(#clip0_35_6912)">
<mask id="mask0_35_6912" style="mask-type:luminance" maskUnits="userSpaceOnUse" x="0" y="0" width="128" height="128">
<path d="M128 0H0V128H128V0Z" fill="white"/>
</mask>
<g mask="url(#mask0_35_6912)">
<mask id="mask1_35_6912" style="mask-type:luminance" maskUnits="userSpaceOnUse" x="0" y="0" width="128" height="128">
<path d="M128 0H0V128H128V0Z" fill="white"/>
</mask>
<g mask="url(#mask1_35_6912)">
<mask id="mask2_35_6912" style="mask-type:luminance" maskUnits="userSpaceOnUse" x="0" y="0" width="128" height="128">
<path d="M128 0H0V128H128V0Z" fill="white"/>
</mask>
<g mask="url(#mask2_35_6912)">
<mask id="mask3_35_6912" style="mask-type:alpha" maskUnits="userSpaceOnUse" x="0" y="0" width="128" height="128">
<path fill-rule="evenodd" clip-rule="evenodd" d="M128 0H0V128H128V0ZM37.952 93H90.975C100.227 93 107.998 85.353 107.998 76.028C107.998 68.022 102.305 61.35 94.925 59.551C95.362 49.901 89.675 40.609 80.551 36.792C71.107 32.842 60.066 35.612 53.531 43.238C48.571 41.596 42.981 42.296 38.574 45.291C34.146 48.3 31.431 53.281 31.184 58.538C24.064 61.463 19.328 68.851 20.078 76.784C20.942 85.929 28.828 93.002 37.952 93Z" fill="black"/>
</mask>
<g mask="url(#mask3_35_6912)">
<path d="M101.194 55.562C102.367 51.05 99.7599 46.422 95.5039 44.713C91.1919 42.981 85.9609 44.474 83.4189 48.423C81.2649 47.18 78.496 47.25 76.412 48.609C74.381 49.934 73.243 52.372 73.675 54.779C70.3 55.391 67.6869 58.469 68.0309 61.956C68.3749 65.451 71.5389 68.001 74.9769 68C83.8129 68 92.6509 67.993 101.488 68C104.911 68 108 65.285 108 61.774C108 58.143 104.721 55.414 101.194 55.562Z" fill="#378ADD"/>
</g>
<path d="M90.389 63.086C92.684 53.882 87.7411 44.136 79.009 40.482C70.265 36.824 59.828 40.138 54.837 48.212C50.537 45.625 44.975 45.778 40.824 48.599C36.684 51.413 34.5 56.514 35.35 61.454C28.393 62.769 23.393 69.339 24.061 76.408C24.729 83.477 30.871 89.002 37.953 89H90.977C98.045 89 104 83.119 104 76.028C104 68.701 97.677 62.768 90.389 63.086Z" fill="#888780"/>
</g>
<path d="M52 91V103" stroke="#042C53" stroke-width="4" stroke-linecap="round"/>
<path d="M64 83V95" stroke="#042C53" stroke-width="4" stroke-linecap="round"/>
<path d="M76 91V103" stroke="#042C53" stroke-width="4" stroke-linecap="round"/>
</g>
</g>
</g>
<defs>
<clipPath id="clip0_35_6912">
<rect width="128" height="128" fill="white"/>
</clipPath>
</defs>
</svg>
