<svg width="128" height="128" viewBox="0 0 128 128" fill="none" xmlns="http://www.w3.org/2000/svg">
<g clip-path="url(#clip0_35_6883)">
<mask id="mask0_35_6883" style="mask-type:luminance" maskUnits="userSpaceOnUse" x="0" y="0" width="128" height="128">
<path d="M128 0H0V128H128V0Z" fill="white"/>
</mask>
<g mask="url(#mask0_35_6883)">
<mask id="mask1_35_6883" style="mask-type:luminance" maskUnits="userSpaceOnUse" x="0" y="0" width="128" height="128">
<path d="M128 0H0V128H128V0Z" fill="white"/>
</mask>
<g mask="url(#mask1_35_6883)">
<path d="M90.389 63.086C92.684 53.882 87.741 44.136 79.009 40.482C70.265 36.824 59.828 40.138 54.837 48.212C50.537 45.625 44.975 45.778 40.824 48.599C36.684 51.413 34.5 56.514 35.35 61.454C28.393 62.769 23.393 69.339 24.061 76.408C24.729 83.477 30.871 89.002 37.953 89H90.977C98.045 89 104 83.119 104 76.028C104 68.701 97.677 62.768 90.389 63.086Z" fill="#B5D4F4"/>
<path d="M52.5781 98.366L51.3731 97.677C51.4791 97.2322 51.4784 96.7685 51.3711 96.324L52.5781 95.634C52.6739 95.5799 52.758 95.5074 52.8254 95.4205C52.8929 95.3337 52.9425 95.2343 52.9713 95.1281C53 95.022 53.0074 94.9112 52.9929 94.8021C52.9785 94.6931 52.9425 94.588 52.8871 94.493C52.7736 94.3008 52.589 94.161 52.3733 94.1038C52.1575 94.0465 51.928 94.0764 51.7341 94.187L50.5281 94.877C50.1928 94.5604 49.787 94.3283 49.3441 94.2V92.82C49.3363 92.6008 49.2442 92.3931 49.0869 92.2403C48.9296 92.0875 48.7194 92.0014 48.5001 92C48.2803 91.9997 48.069 92.0852 47.9113 92.2384C47.7537 92.3916 47.6621 92.6003 47.6561 92.82V94.2C47.214 94.3294 46.8083 94.5602 46.4711 94.874L45.2661 94.185C45.146 94.1166 45.0111 94.0786 44.873 94.0743C44.7349 94.07 44.5978 94.0994 44.4737 94.1602C44.3496 94.2209 44.2422 94.311 44.1609 94.4227C44.0796 94.5344 44.0268 94.6643 44.0071 94.801C43.9853 94.9653 44.0132 95.1323 44.0871 95.2806C44.1611 95.4288 44.2778 95.5516 44.4221 95.633L45.6261 96.322C45.5201 96.767 45.5211 97.231 45.6291 97.675L44.4221 98.365C44.2778 98.4464 44.1611 98.5692 44.0871 98.7174C44.0132 98.8657 43.9853 99.0327 44.0071 99.197C44.0281 99.3625 44.0985 99.5178 44.2091 99.6426C44.3197 99.7675 44.4654 99.8561 44.6271 99.897C44.8432 99.9542 45.0731 99.9241 45.2671 99.813L46.4721 99.123C46.8061 99.441 47.2121 99.673 47.6561 99.798V101.18C47.6638 101.399 47.756 101.607 47.9132 101.76C48.0705 101.912 48.2808 101.999 48.5001 102C48.7199 102 48.9312 101.915 49.0888 101.762C49.2465 101.608 49.3381 101.4 49.3441 101.18V99.797C49.7851 99.668 50.1911 99.437 50.5281 99.124L51.7341 99.814C51.8541 99.8826 51.9891 99.9208 52.1272 99.9253C52.2654 99.9297 52.4026 99.9003 52.5268 99.8395C52.651 99.7788 52.7584 99.6885 52.8397 99.5767C52.9209 99.4649 52.9736 99.3349 52.9931 99.198C53.0149 99.0337 52.987 98.8667 52.913 98.7184C52.8391 98.5702 52.7224 98.4474 52.5781 98.366ZM47.8661 98.086C47.6489 97.9642 47.4734 97.7798 47.3624 97.5569C47.2515 97.3339 47.2102 97.0827 47.2441 96.836C47.2767 96.5884 47.3827 96.3562 47.5484 96.1694C47.7142 95.9827 47.9321 95.8498 48.1741 95.788C48.4148 95.7236 48.6692 95.7315 48.9055 95.8106C49.1418 95.8897 49.3497 96.0366 49.5031 96.233C49.6554 96.4296 49.7456 96.6672 49.7622 96.9153C49.7787 97.1635 49.7209 97.4109 49.5961 97.626C49.425 97.9136 49.1482 98.1227 48.8249 98.2087C48.5015 98.2947 48.1574 98.2506 47.8661 98.086Z" fill="#378ADD"/>
<path d="M67.5781 90.366L66.3741 89.677C66.4798 89.2321 66.4787 88.7685 66.3711 88.324L67.5781 87.634C67.6739 87.5799 67.758 87.5074 67.8254 87.4205C67.8929 87.3337 67.9425 87.2343 67.9713 87.1281C68 87.022 68.0074 86.9112 67.9929 86.8021C67.9785 86.6931 67.9425 86.588 67.8871 86.493C67.7736 86.3008 67.589 86.161 67.3733 86.1038C67.1575 86.0465 66.928 86.0764 66.7341 86.187L65.5281 86.877C65.1928 86.5604 64.787 86.3283 64.3441 86.2V84.82C64.3363 84.6008 64.2442 84.3931 64.0869 84.2403C63.9296 84.0875 63.7194 84.0014 63.5001 84C63.2803 83.9997 63.069 84.0852 62.9113 84.2384C62.7537 84.3916 62.6621 84.6003 62.6561 84.82V86.2C62.214 86.3294 61.8083 86.5602 61.4711 86.874L60.2661 86.185C60.146 86.1166 60.0111 86.0786 59.873 86.0743C59.7349 86.07 59.5978 86.0994 59.4737 86.1602C59.3496 86.2209 59.2422 86.311 59.1609 86.4227C59.0796 86.5344 59.0268 86.6643 59.0071 86.801C58.9853 86.9653 59.0132 87.1323 59.0871 87.2806C59.1611 87.4288 59.2778 87.5516 59.4221 87.633L60.6261 88.322C60.5201 88.767 60.5211 89.231 60.6291 89.675L59.4221 90.365C59.2778 90.4464 59.1611 90.5692 59.0871 90.7174C59.0132 90.8657 58.9853 91.0327 59.0071 91.197C59.0281 91.3625 59.0985 91.5178 59.2091 91.6426C59.3197 91.7675 59.4654 91.8561 59.6271 91.897C59.8432 91.9542 60.0731 91.9241 60.2671 91.813L61.4721 91.123C61.8061 91.441 62.2121 91.673 62.6561 91.798V93.18C62.6638 93.3992 62.756 93.6069 62.9132 93.7597C63.0705 93.9125 63.2808 93.9986 63.5001 94C63.7199 94.0003 63.9312 93.9148 64.0888 93.7616C64.2465 93.6084 64.3381 93.3997 64.3441 93.18V91.797C64.7851 91.668 65.1911 91.437 65.5281 91.124L66.7341 91.814C66.8541 91.8826 66.9891 91.9208 67.1273 91.9253C67.2654 91.9297 67.4026 91.9003 67.5268 91.8395C67.6509 91.7788 67.7584 91.6885 67.8397 91.5767C67.9209 91.4649 67.9736 91.3349 67.9931 91.198C68.0149 91.0337 67.987 90.8667 67.913 90.7184C67.8391 90.5702 67.7224 90.4474 67.5781 90.366ZM62.8661 90.086C62.6489 89.9642 62.4734 89.7798 62.3624 89.5569C62.2515 89.3339 62.2102 89.0827 62.2441 88.836C62.2767 88.5884 62.3827 88.3562 62.5484 88.1694C62.7142 87.9827 62.9321 87.8498 63.1741 87.788C63.4148 87.7236 63.6692 87.7315 63.9055 87.8106C64.1418 87.8897 64.3497 88.0366 64.5031 88.233C64.6554 88.4296 64.7456 88.6672 64.7622 88.9153C64.7787 89.1635 64.7209 89.4109 64.5961 89.626C64.425 89.9136 64.1482 90.1227 63.8249 90.2087C63.5015 90.2947 63.1574 90.2506 62.8661 90.086Z" fill="#378ADD"/>
<path d="M82.5781 98.366L81.3741 97.677C81.4798 97.2321 81.4787 96.7685 81.3711 96.324L82.5781 95.634C82.6739 95.5799 82.7579 95.5074 82.8254 95.4205C82.8929 95.3337 82.9425 95.2343 82.9713 95.1281C83 95.022 83.0074 94.9112 82.9929 94.8021C82.9785 94.6931 82.9425 94.588 82.8871 94.493C82.7736 94.3008 82.589 94.161 82.3733 94.1038C82.1575 94.0465 81.928 94.0764 81.7341 94.187L80.5281 94.877C80.1928 94.5604 79.787 94.3283 79.3441 94.2V92.82C79.3363 92.6008 79.2442 92.3931 79.0869 92.2403C78.9296 92.0875 78.7194 92.0014 78.5001 92C78.2803 91.9997 78.069 92.0852 77.9113 92.2384C77.7537 92.3916 77.6621 92.6003 77.6561 92.82V94.2C77.214 94.3294 76.8083 94.5602 76.4711 94.874L75.2661 94.185C75.146 94.1166 75.0111 94.0786 74.873 94.0743C74.7349 94.07 74.5978 94.0994 74.4737 94.1602C74.3496 94.2209 74.2422 94.311 74.1609 94.4227C74.0796 94.5344 74.0268 94.6643 74.0071 94.801C73.9853 94.9653 74.0132 95.1323 74.0871 95.2806C74.1611 95.4288 74.2778 95.5516 74.4221 95.633L75.6261 96.322C75.5201 96.767 75.5211 97.231 75.6291 97.675L74.4221 98.365C74.2778 98.4464 74.1611 98.5692 74.0871 98.7174C74.0132 98.8657 73.9853 99.0327 74.0071 99.197C74.0281 99.3625 74.0985 99.5178 74.2091 99.6426C74.3197 99.7675 74.4654 99.8561 74.6271 99.897C74.8432 99.9542 75.0731 99.9241 75.2671 99.813L76.4721 99.123C76.8061 99.441 77.2121 99.673 77.6561 99.798V101.18C77.6638 101.399 77.756 101.607 77.9132 101.76C78.0705 101.912 78.2808 101.999 78.5001 102C78.7199 102 78.9312 101.915 79.0888 101.762C79.2465 101.608 79.3381 101.4 79.3441 101.18V99.797C79.7851 99.668 80.1911 99.437 80.5281 99.124L81.7341 99.814C81.8541 99.8826 81.9891 99.9208 82.1272 99.9253C82.2654 99.9297 82.4026 99.9003 82.5268 99.8395C82.6509 99.7788 82.7584 99.6885 82.8397 99.5767C82.9209 99.4649 82.9736 99.3349 82.9931 99.198C83.0149 99.0337 82.987 98.8667 82.913 98.7184C82.839 98.5702 82.7224 98.4474 82.5781 98.366ZM77.8661 98.086C77.6489 97.9642 77.4734 97.7798 77.3624 97.5569C77.2515 97.3339 77.2102 97.0827 77.2441 96.836C77.2767 96.5884 77.3827 96.3562 77.5484 96.1694C77.7142 95.9827 77.9321 95.8498 78.1741 95.788C78.4148 95.7236 78.6692 95.7315 78.9055 95.8106C79.1418 95.8897 79.3496 96.0366 79.5031 96.233C79.6554 96.4296 79.7456 96.6672 79.7622 96.9153C79.7787 97.1635 79.7209 97.4109 79.5961 97.626C79.425 97.9136 79.1482 98.1227 78.8249 98.2087C78.5015 98.2947 78.1573 98.2506 77.8661 98.086Z" fill="#378ADD"/>
</g>
</g>
</g>
<defs>
<clipPath id="clip0_35_6883">
<rect width="128" height="128" fill="white"/>
</clipPath>
</defs>
</svg>
