<svg width="128" height="128" viewBox="0 0 128 128" fill="none" xmlns="http://www.w3.org/2000/svg">
<g clip-path="url(#clip0_35_6861)">
<mask id="mask0_35_6861" style="mask-type:luminance" maskUnits="userSpaceOnUse" x="0" y="0" width="128" height="128">
<path d="M128 0H0V128H128V0Z" fill="white"/>
</mask>
<g mask="url(#mask0_35_6861)">
<mask id="mask1_35_6861" style="mask-type:luminance" maskUnits="userSpaceOnUse" x="0" y="0" width="128" height="128">
<path d="M128 0H0V128H128V0Z" fill="white"/>
</mask>
<g mask="url(#mask1_35_6861)">
<mask id="mask2_35_6861" style="mask-type:luminance" maskUnits="userSpaceOnUse" x="0" y="0" width="128" height="128">
<path d="M128 0H0V128H128V0Z" fill="white"/>
</mask>
<g mask="url(#mask2_35_6861)">
<mask id="mask3_35_6861" style="mask-type:alpha" maskUnits="userSpaceOnUse" x="0" y="0" width="128" height="128">
<path fill-rule="evenodd" clip-rule="evenodd" d="M128 0H0V128H128V0ZM37.952 93H90.975C100.227 93 107.998 85.353 107.998 76.028C107.998 68.022 102.305 61.35 94.925 59.551C95.362 49.901 89.675 40.609 80.551 36.792C71.107 32.842 60.066 35.612 53.531 43.238C48.571 41.596 42.981 42.296 38.574 45.291C34.146 48.3 31.431 53.281 31.184 58.538C24.064 61.463 19.328 68.851 20.078 76.784C20.942 85.929 28.828 93.002 37.952 93Z" fill="black"/>
</mask>
<g mask="url(#mask3_35_6861)">
<path d="M101.194 55.562C102.367 51.05 99.7599 46.422 95.5039 44.713C91.1919 42.981 85.9609 44.474 83.4189 48.423C81.2649 47.18 78.496 47.25 76.412 48.609C74.381 49.934 73.243 52.372 73.675 54.779C70.3 55.391 67.6869 58.469 68.0309 61.956C68.3749 65.451 71.5389 68.001 74.9769 68C83.8129 68 92.6509 67.993 101.488 68C104.911 68 108 65.285 108 61.774C108 58.143 104.721 55.414 101.194 55.562Z" fill="#378ADD"/>
</g>
<path d="M90.389 63.086C92.684 53.882 87.741 44.136 79.009 40.482C70.265 36.824 59.828 40.138 54.837 48.212C50.537 45.625 44.975 45.778 40.824 48.599C36.684 51.413 34.5 56.514 35.35 61.454C28.393 62.769 23.393 69.339 24.061 76.408C24.729 83.477 30.871 89.002 37.953 89H90.977C98.045 89 104 83.119 104 76.028C104 68.701 97.677 62.768 90.389 63.086Z" fill="#888780"/>
</g>
<path d="M52.578 98.366L51.373 97.677C51.479 97.2322 51.4783 96.7685 51.371 96.324L52.578 95.634C52.6737 95.5799 52.7578 95.5074 52.8253 95.4205C52.8928 95.3337 52.9424 95.2343 52.9711 95.1281C52.9999 95.022 53.0073 94.9112 52.9928 94.8021C52.9784 94.6931 52.9424 94.588 52.887 94.493C52.7734 94.3008 52.5889 94.161 52.3732 94.1038C52.1574 94.0465 51.9278 94.0764 51.734 94.187L50.528 94.877C50.1927 94.5604 49.7868 94.3283 49.344 94.2V92.82C49.3362 92.6008 49.2441 92.3931 49.0868 92.2403C48.9295 92.0875 48.7192 92.0014 48.5 92C48.2801 91.9997 48.0689 92.0852 47.9112 92.2384C47.7535 92.3916 47.662 92.6003 47.656 92.82V94.2C47.2139 94.3294 46.8081 94.5602 46.471 94.874L45.266 94.185C45.1459 94.1166 45.011 94.0786 44.8729 94.0743C44.7348 94.07 44.5977 94.0994 44.4736 94.1602C44.3495 94.2209 44.2421 94.311 44.1608 94.4227C44.0795 94.5344 44.0267 94.6643 44.007 94.801C43.9852 94.9653 44.0131 95.1323 44.087 95.2806C44.161 95.4288 44.2776 95.5516 44.422 95.633L45.626 96.322C45.52 96.767 45.521 97.231 45.629 97.675L44.422 98.365C44.2776 98.4464 44.161 98.5692 44.087 98.7174C44.0131 98.8657 43.9852 99.0327 44.007 99.197C44.028 99.3625 44.0984 99.5178 44.209 99.6426C44.3196 99.7675 44.4652 99.8561 44.627 99.897C44.843 99.9542 45.073 99.9241 45.267 99.813L46.472 99.123C46.806 99.441 47.212 99.673 47.656 99.798V101.18C47.6637 101.399 47.7558 101.607 47.9131 101.76C48.0704 101.912 48.2807 101.999 48.5 102C48.7198 102 48.931 101.915 49.0887 101.762C49.2464 101.608 49.338 101.4 49.344 101.18V99.797C49.785 99.668 50.191 99.437 50.528 99.124L51.734 99.814C51.854 99.8826 51.989 99.9208 52.1271 99.9253C52.2653 99.9297 52.4025 99.9003 52.5266 99.8395C52.6508 99.7788 52.7582 99.6885 52.8395 99.5767C52.9208 99.4649 52.9735 99.3349 52.993 99.198C53.0147 99.0337 52.9869 98.8667 52.9129 98.7184C52.8389 98.5702 52.7223 98.4474 52.578 98.366ZM47.866 98.086C47.6488 97.9642 47.4732 97.7798 47.3623 97.5569C47.2514 97.3339 47.2101 97.0827 47.244 96.836C47.2765 96.5884 47.3826 96.3562 47.5483 96.1694C47.7141 95.9827 47.932 95.8498 48.174 95.788C48.4147 95.7236 48.6691 95.7315 48.9054 95.8106C49.1417 95.8897 49.3495 96.0366 49.503 96.233C49.6553 96.4296 49.7455 96.6672 49.7621 96.9153C49.7786 97.1635 49.7208 97.4109 49.596 97.626C49.4249 97.9136 49.1481 98.1227 48.8247 98.2087C48.5014 98.2947 48.1572 98.2506 47.866 98.086Z" fill="#378ADD"/>
<path d="M67.578 90.366L66.374 89.677C66.4797 89.2321 66.4786 88.7685 66.371 88.324L67.578 87.634C67.6737 87.5799 67.7578 87.5074 67.8253 87.4205C67.8928 87.3337 67.9424 87.2343 67.9711 87.1281C67.9999 87.022 68.0073 86.9112 67.9928 86.8021C67.9783 86.6931 67.9424 86.588 67.887 86.493C67.7734 86.3008 67.5889 86.161 67.3731 86.1038C67.1574 86.0465 66.9278 86.0764 66.734 86.187L65.528 86.877C65.1927 86.5604 64.7868 86.3283 64.344 86.2V84.82C64.3362 84.6008 64.2441 84.3931 64.0868 84.2403C63.9295 84.0875 63.7192 84.0014 63.5 84C63.2801 83.9997 63.0689 84.0852 62.9112 84.2384C62.7535 84.3916 62.662 84.6003 62.656 84.82V86.2C62.2139 86.3294 61.8081 86.5602 61.471 86.874L60.266 86.185C60.1459 86.1166 60.011 86.0786 59.8729 86.0743C59.7348 86.07 59.5977 86.0994 59.4736 86.1602C59.3495 86.2209 59.2421 86.311 59.1608 86.4227C59.0795 86.5344 59.0267 86.6643 59.007 86.801C58.9852 86.9653 59.0131 87.1323 59.087 87.2806C59.161 87.4288 59.2776 87.5516 59.422 87.633L60.626 88.322C60.52 88.767 60.521 89.231 60.629 89.675L59.422 90.365C59.2776 90.4464 59.161 90.5692 59.087 90.7174C59.0131 90.8657 58.9852 91.0327 59.007 91.197C59.028 91.3625 59.0984 91.5178 59.209 91.6426C59.3196 91.7675 59.4652 91.8561 59.627 91.897C59.843 91.9542 60.073 91.9241 60.267 91.813L61.472 91.123C61.806 91.441 62.212 91.673 62.656 91.798V93.18C62.6637 93.3992 62.7558 93.6069 62.9131 93.7597C63.0704 93.9125 63.2807 93.9986 63.5 94C63.7198 94.0003 63.931 93.9148 64.0887 93.7616C64.2464 93.6084 64.338 93.3997 64.344 93.18V91.797C64.785 91.668 65.191 91.437 65.528 91.124L66.734 91.814C66.854 91.8826 66.989 91.9208 67.1271 91.9253C67.2653 91.9297 67.4025 91.9003 67.5266 91.8395C67.6508 91.7788 67.7583 91.6885 67.8395 91.5767C67.9208 91.4649 67.9735 91.3349 67.993 91.198C68.0147 91.0337 67.9869 90.8667 67.9129 90.7184C67.8389 90.5702 67.7223 90.4474 67.578 90.366ZM62.866 90.086C62.6488 89.9642 62.4732 89.7798 62.3623 89.5569C62.2514 89.3339 62.2101 89.0827 62.244 88.836C62.2765 88.5884 62.3826 88.3562 62.5483 88.1694C62.7141 87.9827 62.932 87.8498 63.174 87.788C63.4147 87.7236 63.6691 87.7315 63.9054 87.8106C64.1417 87.8897 64.3495 88.0366 64.503 88.233C64.6553 88.4296 64.7455 88.6672 64.762 88.9153C64.7786 89.1635 64.7208 89.4109 64.596 89.626C64.4249 89.9136 64.1481 90.1227 63.8247 90.2087C63.5014 90.2947 63.1572 90.2506 62.866 90.086Z" fill="#378ADD"/>
<path d="M82.578 98.366L81.374 97.677C81.4796 97.2321 81.4786 96.7685 81.371 96.324L82.578 95.634C82.6737 95.5799 82.7578 95.5074 82.8253 95.4205C82.8928 95.3337 82.9424 95.2343 82.9711 95.1281C82.9999 95.022 83.0072 94.9112 82.9928 94.8021C82.9783 94.6931 82.9424 94.588 82.887 94.493C82.7734 94.3008 82.5889 94.161 82.3731 94.1038C82.1574 94.0465 81.9278 94.0764 81.734 94.187L80.528 94.877C80.1927 94.5604 79.7868 94.3283 79.344 94.2V92.82C79.3362 92.6008 79.2441 92.3931 79.0868 92.2403C78.9295 92.0875 78.7192 92.0014 78.5 92C78.2801 91.9997 78.0689 92.0852 77.9112 92.2384C77.7535 92.3916 77.6619 92.6003 77.656 92.82V94.2C77.2139 94.3294 76.8081 94.5602 76.471 94.874L75.266 94.185C75.1459 94.1166 75.011 94.0786 74.8729 94.0743C74.7348 94.07 74.5977 94.0994 74.4736 94.1602C74.3495 94.2209 74.2421 94.311 74.1608 94.4227C74.0795 94.5344 74.0267 94.6643 74.007 94.801C73.9852 94.9653 74.0131 95.1323 74.087 95.2806C74.161 95.4288 74.2776 95.5516 74.422 95.633L75.626 96.322C75.52 96.767 75.521 97.231 75.629 97.675L74.422 98.365C74.2776 98.4464 74.161 98.5692 74.087 98.7174C74.0131 98.8657 73.9852 99.0327 74.007 99.197C74.028 99.3625 74.0984 99.5178 74.209 99.6426C74.3196 99.7675 74.4652 99.8561 74.627 99.897C74.843 99.9542 75.073 99.9241 75.267 99.813L76.472 99.123C76.806 99.441 77.212 99.673 77.656 99.798V101.18C77.6637 101.399 77.7558 101.607 77.9131 101.76C78.0704 101.912 78.2807 101.999 78.5 102C78.7198 102 78.931 101.915 79.0887 101.762C79.2464 101.608 79.338 101.4 79.344 101.18V99.797C79.785 99.668 80.191 99.437 80.528 99.124L81.734 99.814C81.854 99.8826 81.989 99.9208 82.1271 99.9253C82.2653 99.9297 82.4025 99.9003 82.5266 99.8395C82.6508 99.7788 82.7582 99.6885 82.8395 99.5767C82.9208 99.4649 82.9735 99.3349 82.9929 99.198C83.0147 99.0337 82.9868 98.8667 82.9129 98.7184C82.8389 98.5702 82.7223 98.4474 82.578 98.366ZM77.866 98.086C77.6487 97.9642 77.4732 97.7798 77.3623 97.5569C77.2514 97.3339 77.2101 97.0827 77.244 96.836C77.2765 96.5884 77.3826 96.3562 77.5483 96.1694C77.7141 95.9827 77.932 95.8498 78.174 95.788C78.4147 95.7236 78.6691 95.7315 78.9054 95.8106C79.1417 95.8897 79.3495 96.0366 79.503 96.233C79.6553 96.4296 79.7455 96.6672 79.762 96.9153C79.7786 97.1635 79.7208 97.4109 79.596 97.626C79.4249 97.9136 79.1481 98.1227 78.8247 98.2087C78.5014 98.2947 78.1572 98.2506 77.866 98.086Z" fill="#378ADD"/>
</g>
</g>
</g>
<defs>
<clipPath id="clip0_35_6861">
<rect width="128" height="128" fill="white"/>
</clipPath>
</defs>
</svg>
